<mxfile host="app.diagrams.net" modified="2021-01-09T05:43:18.262Z" agent="5.0 (Windows NT 10.0; Win64; x64) AppleWebKit/537.36 (KHTML, like Gecko) Chrome/87.0.4280.141 Safari/537.36" etag="2coUKKA3un2woTSvd8OH" version="14.1.8" type="github">
  <diagram id="-Hq7ED59GDJsUSMvZoMH" name="Page-1">
    <mxGraphModel dx="2808" dy="1525" grid="1" gridSize="10" guides="1" tooltips="1" connect="1" arrows="1" fold="1" page="1" pageScale="1" pageWidth="850" pageHeight="1100" math="0" shadow="0">
      <root>
        <mxCell id="0" />
        <mxCell id="1" parent="0" />
        <mxCell id="XqDq5O9ZwhlFk01etam3-1" value="Equipment" style="swimlane;fontStyle=1;align=center;verticalAlign=top;childLayout=stackLayout;horizontal=1;startSize=26;horizontalStack=0;resizeParent=1;resizeParentMax=0;resizeLast=0;collapsible=1;marginBottom=0;" parent="1" vertex="1">
          <mxGeometry x="-320" y="50" width="260" height="240" as="geometry" />
        </mxCell>
        <mxCell id="XqDq5O9ZwhlFk01etam3-2" value="- name: string" style="text;strokeColor=none;fillColor=none;align=left;verticalAlign=top;spacingLeft=4;spacingRight=4;overflow=hidden;rotatable=0;points=[[0,0.5],[1,0.5]];portConstraint=eastwest;" parent="XqDq5O9ZwhlFk01etam3-1" vertex="1">
          <mxGeometry y="26" width="260" height="24" as="geometry" />
        </mxCell>
        <mxCell id="XqDq5O9ZwhlFk01etam3-11" value="- description: text" style="text;strokeColor=none;fillColor=none;align=left;verticalAlign=top;spacingLeft=4;spacingRight=4;overflow=hidden;rotatable=0;points=[[0,0.5],[1,0.5]];portConstraint=eastwest;" parent="XqDq5O9ZwhlFk01etam3-1" vertex="1">
          <mxGeometry y="50" width="260" height="26" as="geometry" />
        </mxCell>
        <mxCell id="XqDq5O9ZwhlFk01etam3-13" value="- number: int" style="text;strokeColor=none;fillColor=none;align=left;verticalAlign=top;spacingLeft=4;spacingRight=4;overflow=hidden;rotatable=0;points=[[0,0.5],[1,0.5]];portConstraint=eastwest;" parent="XqDq5O9ZwhlFk01etam3-1" vertex="1">
          <mxGeometry y="76" width="260" height="24" as="geometry" />
        </mxCell>
        <mxCell id="XqDq5O9ZwhlFk01etam3-3" value="" style="line;strokeWidth=1;fillColor=none;align=left;verticalAlign=middle;spacingTop=-1;spacingLeft=3;spacingRight=3;rotatable=0;labelPosition=right;points=[];portConstraint=eastwest;" parent="XqDq5O9ZwhlFk01etam3-1" vertex="1">
          <mxGeometry y="100" width="260" height="8" as="geometry" />
        </mxCell>
        <mxCell id="XqDq5O9ZwhlFk01etam3-4" value="+ save(equip: Equipment): void" style="text;strokeColor=none;fillColor=none;align=left;verticalAlign=top;spacingLeft=4;spacingRight=4;overflow=hidden;rotatable=0;points=[[0,0.5],[1,0.5]];portConstraint=eastwest;" parent="XqDq5O9ZwhlFk01etam3-1" vertex="1">
          <mxGeometry y="108" width="260" height="22" as="geometry" />
        </mxCell>
        <mxCell id="XqDq5O9ZwhlFk01etam3-14" value="+ remove(equip: Equipment): void" style="text;strokeColor=none;fillColor=none;align=left;verticalAlign=top;spacingLeft=4;spacingRight=4;overflow=hidden;rotatable=0;points=[[0,0.5],[1,0.5]];portConstraint=eastwest;" parent="XqDq5O9ZwhlFk01etam3-1" vertex="1">
          <mxGeometry y="130" width="260" height="22" as="geometry" />
        </mxCell>
        <mxCell id="XqDq5O9ZwhlFk01etam3-15" value="+ update(equip: Equipment): void" style="text;strokeColor=none;fillColor=none;align=left;verticalAlign=top;spacingLeft=4;spacingRight=4;overflow=hidden;rotatable=0;points=[[0,0.5],[1,0.5]];portConstraint=eastwest;" parent="XqDq5O9ZwhlFk01etam3-1" vertex="1">
          <mxGeometry y="152" width="260" height="22" as="geometry" />
        </mxCell>
        <mxCell id="XqDq5O9ZwhlFk01etam3-16" value="+ findById(id: Long): Equipment" style="text;strokeColor=none;fillColor=none;align=left;verticalAlign=top;spacingLeft=4;spacingRight=4;overflow=hidden;rotatable=0;points=[[0,0.5],[1,0.5]];portConstraint=eastwest;" parent="XqDq5O9ZwhlFk01etam3-1" vertex="1">
          <mxGeometry y="174" width="260" height="22" as="geometry" />
        </mxCell>
        <mxCell id="XqDq5O9ZwhlFk01etam3-18" value="+ findAll(): Equipment" style="text;strokeColor=none;fillColor=none;align=left;verticalAlign=top;spacingLeft=4;spacingRight=4;overflow=hidden;rotatable=0;points=[[0,0.5],[1,0.5]];portConstraint=eastwest;" parent="XqDq5O9ZwhlFk01etam3-1" vertex="1">
          <mxGeometry y="196" width="260" height="22" as="geometry" />
        </mxCell>
        <mxCell id="XqDq5O9ZwhlFk01etam3-17" value="+ findByFilter(filter: Equipment): List" style="text;strokeColor=none;fillColor=none;align=left;verticalAlign=top;spacingLeft=4;spacingRight=4;overflow=hidden;rotatable=0;points=[[0,0.5],[1,0.5]];portConstraint=eastwest;" parent="XqDq5O9ZwhlFk01etam3-1" vertex="1">
          <mxGeometry y="218" width="260" height="22" as="geometry" />
        </mxCell>
        <mxCell id="XqDq5O9ZwhlFk01etam3-19" value="Collaborator" style="swimlane;fontStyle=1;align=center;verticalAlign=top;childLayout=stackLayout;horizontal=1;startSize=26;horizontalStack=0;resizeParent=1;resizeParentMax=0;resizeLast=0;collapsible=1;marginBottom=0;" parent="1" vertex="1">
          <mxGeometry x="-1180" y="20" width="260" height="264" as="geometry" />
        </mxCell>
        <mxCell id="XqDq5O9ZwhlFk01etam3-20" value="- name: string" style="text;strokeColor=none;fillColor=none;align=left;verticalAlign=top;spacingLeft=4;spacingRight=4;overflow=hidden;rotatable=0;points=[[0,0.5],[1,0.5]];portConstraint=eastwest;" parent="XqDq5O9ZwhlFk01etam3-19" vertex="1">
          <mxGeometry y="26" width="260" height="24" as="geometry" />
        </mxCell>
        <mxCell id="XqDq5O9ZwhlFk01etam3-21" value="- user: string" style="text;strokeColor=none;fillColor=none;align=left;verticalAlign=top;spacingLeft=4;spacingRight=4;overflow=hidden;rotatable=0;points=[[0,0.5],[1,0.5]];portConstraint=eastwest;" parent="XqDq5O9ZwhlFk01etam3-19" vertex="1">
          <mxGeometry y="50" width="260" height="26" as="geometry" />
        </mxCell>
        <mxCell id="XqDq5O9ZwhlFk01etam3-22" value="- password: int" style="text;strokeColor=none;fillColor=none;align=left;verticalAlign=top;spacingLeft=4;spacingRight=4;overflow=hidden;rotatable=0;points=[[0,0.5],[1,0.5]];portConstraint=eastwest;" parent="XqDq5O9ZwhlFk01etam3-19" vertex="1">
          <mxGeometry y="76" width="260" height="24" as="geometry" />
        </mxCell>
        <mxCell id="XqDq5O9ZwhlFk01etam3-41" value="- Permission: LevelPermission" style="text;strokeColor=none;fillColor=none;align=left;verticalAlign=top;spacingLeft=4;spacingRight=4;overflow=hidden;rotatable=0;points=[[0,0.5],[1,0.5]];portConstraint=eastwest;" parent="XqDq5O9ZwhlFk01etam3-19" vertex="1">
          <mxGeometry y="100" width="260" height="24" as="geometry" />
        </mxCell>
        <mxCell id="XqDq5O9ZwhlFk01etam3-23" value="" style="line;strokeWidth=1;fillColor=none;align=left;verticalAlign=middle;spacingTop=-1;spacingLeft=3;spacingRight=3;rotatable=0;labelPosition=right;points=[];portConstraint=eastwest;" parent="XqDq5O9ZwhlFk01etam3-19" vertex="1">
          <mxGeometry y="124" width="260" height="8" as="geometry" />
        </mxCell>
        <mxCell id="XqDq5O9ZwhlFk01etam3-24" value="+ save(user: Collaborator): void" style="text;strokeColor=none;fillColor=none;align=left;verticalAlign=top;spacingLeft=4;spacingRight=4;overflow=hidden;rotatable=0;points=[[0,0.5],[1,0.5]];portConstraint=eastwest;" parent="XqDq5O9ZwhlFk01etam3-19" vertex="1">
          <mxGeometry y="132" width="260" height="22" as="geometry" />
        </mxCell>
        <mxCell id="XqDq5O9ZwhlFk01etam3-25" value="+ remove(user: Collaborator): void" style="text;strokeColor=none;fillColor=none;align=left;verticalAlign=top;spacingLeft=4;spacingRight=4;overflow=hidden;rotatable=0;points=[[0,0.5],[1,0.5]];portConstraint=eastwest;" parent="XqDq5O9ZwhlFk01etam3-19" vertex="1">
          <mxGeometry y="154" width="260" height="22" as="geometry" />
        </mxCell>
        <mxCell id="XqDq5O9ZwhlFk01etam3-26" value="+ update(user: Collaborator): void" style="text;strokeColor=none;fillColor=none;align=left;verticalAlign=top;spacingLeft=4;spacingRight=4;overflow=hidden;rotatable=0;points=[[0,0.5],[1,0.5]];portConstraint=eastwest;" parent="XqDq5O9ZwhlFk01etam3-19" vertex="1">
          <mxGeometry y="176" width="260" height="22" as="geometry" />
        </mxCell>
        <mxCell id="XqDq5O9ZwhlFk01etam3-27" value="+ findById(id: Long): Collaborator" style="text;strokeColor=none;fillColor=none;align=left;verticalAlign=top;spacingLeft=4;spacingRight=4;overflow=hidden;rotatable=0;points=[[0,0.5],[1,0.5]];portConstraint=eastwest;" parent="XqDq5O9ZwhlFk01etam3-19" vertex="1">
          <mxGeometry y="198" width="260" height="22" as="geometry" />
        </mxCell>
        <mxCell id="XqDq5O9ZwhlFk01etam3-28" value="+ findAll(): Collaborator" style="text;strokeColor=none;fillColor=none;align=left;verticalAlign=top;spacingLeft=4;spacingRight=4;overflow=hidden;rotatable=0;points=[[0,0.5],[1,0.5]];portConstraint=eastwest;" parent="XqDq5O9ZwhlFk01etam3-19" vertex="1">
          <mxGeometry y="220" width="260" height="22" as="geometry" />
        </mxCell>
        <mxCell id="XqDq5O9ZwhlFk01etam3-29" value="+ findByFilter(filter: Collaborator): List" style="text;strokeColor=none;fillColor=none;align=left;verticalAlign=top;spacingLeft=4;spacingRight=4;overflow=hidden;rotatable=0;points=[[0,0.5],[1,0.5]];portConstraint=eastwest;" parent="XqDq5O9ZwhlFk01etam3-19" vertex="1">
          <mxGeometry y="242" width="260" height="22" as="geometry" />
        </mxCell>
        <mxCell id="XqDq5O9ZwhlFk01etam3-30" value="Schedule" style="swimlane;fontStyle=1;align=center;verticalAlign=top;childLayout=stackLayout;horizontal=1;startSize=26;horizontalStack=0;resizeParent=1;resizeParentMax=0;resizeLast=0;collapsible=1;marginBottom=0;" parent="1" vertex="1">
          <mxGeometry x="-910" y="284" width="260" height="218" as="geometry" />
        </mxCell>
        <mxCell id="XqDq5O9ZwhlFk01etam3-31" value="- Period: PeriodDay" style="text;strokeColor=none;fillColor=none;align=left;verticalAlign=top;spacingLeft=4;spacingRight=4;overflow=hidden;rotatable=0;points=[[0,0.5],[1,0.5]];portConstraint=eastwest;" parent="XqDq5O9ZwhlFk01etam3-30" vertex="1">
          <mxGeometry y="26" width="260" height="24" as="geometry" />
        </mxCell>
        <mxCell id="XqDq5O9ZwhlFk01etam3-32" value="- HourInitial: time" style="text;strokeColor=none;fillColor=none;align=left;verticalAlign=top;spacingLeft=4;spacingRight=4;overflow=hidden;rotatable=0;points=[[0,0.5],[1,0.5]];portConstraint=eastwest;" parent="XqDq5O9ZwhlFk01etam3-30" vertex="1">
          <mxGeometry y="50" width="260" height="26" as="geometry" />
        </mxCell>
        <mxCell id="XqDq5O9ZwhlFk01etam3-33" value="- HourFinal: time" style="text;strokeColor=none;fillColor=none;align=left;verticalAlign=top;spacingLeft=4;spacingRight=4;overflow=hidden;rotatable=0;points=[[0,0.5],[1,0.5]];portConstraint=eastwest;" parent="XqDq5O9ZwhlFk01etam3-30" vertex="1">
          <mxGeometry y="76" width="260" height="24" as="geometry" />
        </mxCell>
        <mxCell id="XqDq5O9ZwhlFk01etam3-34" value="" style="line;strokeWidth=1;fillColor=none;align=left;verticalAlign=middle;spacingTop=-1;spacingLeft=3;spacingRight=3;rotatable=0;labelPosition=right;points=[];portConstraint=eastwest;" parent="XqDq5O9ZwhlFk01etam3-30" vertex="1">
          <mxGeometry y="100" width="260" height="8" as="geometry" />
        </mxCell>
        <mxCell id="XqDq5O9ZwhlFk01etam3-35" value="+ save(schedule: Schedule): void" style="text;strokeColor=none;fillColor=none;align=left;verticalAlign=top;spacingLeft=4;spacingRight=4;overflow=hidden;rotatable=0;points=[[0,0.5],[1,0.5]];portConstraint=eastwest;" parent="XqDq5O9ZwhlFk01etam3-30" vertex="1">
          <mxGeometry y="108" width="260" height="22" as="geometry" />
        </mxCell>
        <mxCell id="XqDq5O9ZwhlFk01etam3-36" value="+ remove(schedule: Schedule): void" style="text;strokeColor=none;fillColor=none;align=left;verticalAlign=top;spacingLeft=4;spacingRight=4;overflow=hidden;rotatable=0;points=[[0,0.5],[1,0.5]];portConstraint=eastwest;" parent="XqDq5O9ZwhlFk01etam3-30" vertex="1">
          <mxGeometry y="130" width="260" height="22" as="geometry" />
        </mxCell>
        <mxCell id="XqDq5O9ZwhlFk01etam3-37" value="+ update(schedule: Schedule): void" style="text;strokeColor=none;fillColor=none;align=left;verticalAlign=top;spacingLeft=4;spacingRight=4;overflow=hidden;rotatable=0;points=[[0,0.5],[1,0.5]];portConstraint=eastwest;" parent="XqDq5O9ZwhlFk01etam3-30" vertex="1">
          <mxGeometry y="152" width="260" height="22" as="geometry" />
        </mxCell>
        <mxCell id="XqDq5O9ZwhlFk01etam3-38" value="+ findById(id: Long): Schedule" style="text;strokeColor=none;fillColor=none;align=left;verticalAlign=top;spacingLeft=4;spacingRight=4;overflow=hidden;rotatable=0;points=[[0,0.5],[1,0.5]];portConstraint=eastwest;" parent="XqDq5O9ZwhlFk01etam3-30" vertex="1">
          <mxGeometry y="174" width="260" height="22" as="geometry" />
        </mxCell>
        <mxCell id="XqDq5O9ZwhlFk01etam3-40" value="+ findByFilter(filter: Equipment): List" style="text;strokeColor=none;fillColor=none;align=left;verticalAlign=top;spacingLeft=4;spacingRight=4;overflow=hidden;rotatable=0;points=[[0,0.5],[1,0.5]];portConstraint=eastwest;" parent="XqDq5O9ZwhlFk01etam3-30" vertex="1">
          <mxGeometry y="196" width="260" height="22" as="geometry" />
        </mxCell>
        <mxCell id="XqDq5O9ZwhlFk01etam3-42" value="Reserve" style="swimlane;fontStyle=1;align=center;verticalAlign=top;childLayout=stackLayout;horizontal=1;startSize=26;horizontalStack=0;resizeParent=1;resizeParentMax=0;resizeLast=0;collapsible=1;marginBottom=0;" parent="1" vertex="1">
          <mxGeometry x="-750" y="20" width="260" height="214" as="geometry" />
        </mxCell>
        <mxCell id="XqDq5O9ZwhlFk01etam3-45" value="- Date: int" style="text;strokeColor=none;fillColor=none;align=left;verticalAlign=top;spacingLeft=4;spacingRight=4;overflow=hidden;rotatable=0;points=[[0,0.5],[1,0.5]];portConstraint=eastwest;" parent="XqDq5O9ZwhlFk01etam3-42" vertex="1">
          <mxGeometry y="26" width="260" height="24" as="geometry" />
        </mxCell>
        <mxCell id="jrowfTUUS5YQGsjVpTJD-1" value="- Status: ReserveStatus" style="text;strokeColor=none;fillColor=none;align=left;verticalAlign=top;spacingLeft=4;spacingRight=4;overflow=hidden;rotatable=0;points=[[0,0.5],[1,0.5]];portConstraint=eastwest;" vertex="1" parent="XqDq5O9ZwhlFk01etam3-42">
          <mxGeometry y="50" width="260" height="24" as="geometry" />
        </mxCell>
        <mxCell id="XqDq5O9ZwhlFk01etam3-47" value="" style="line;strokeWidth=1;fillColor=none;align=left;verticalAlign=middle;spacingTop=-1;spacingLeft=3;spacingRight=3;rotatable=0;labelPosition=right;points=[];portConstraint=eastwest;" parent="XqDq5O9ZwhlFk01etam3-42" vertex="1">
          <mxGeometry y="74" width="260" height="8" as="geometry" />
        </mxCell>
        <mxCell id="XqDq5O9ZwhlFk01etam3-48" value="+ reserve(equip: Equipment): void" style="text;strokeColor=none;fillColor=none;align=left;verticalAlign=top;spacingLeft=4;spacingRight=4;overflow=hidden;rotatable=0;points=[[0,0.5],[1,0.5]];portConstraint=eastwest;" parent="XqDq5O9ZwhlFk01etam3-42" vertex="1">
          <mxGeometry y="82" width="260" height="22" as="geometry" />
        </mxCell>
        <mxCell id="XqDq5O9ZwhlFk01etam3-49" value="+ return(user: Collaborator): void" style="text;strokeColor=none;fillColor=none;align=left;verticalAlign=top;spacingLeft=4;spacingRight=4;overflow=hidden;rotatable=0;points=[[0,0.5],[1,0.5]];portConstraint=eastwest;" parent="XqDq5O9ZwhlFk01etam3-42" vertex="1">
          <mxGeometry y="104" width="260" height="22" as="geometry" />
        </mxCell>
        <mxCell id="XqDq5O9ZwhlFk01etam3-50" value="+ remove(reserver: reserve): void" style="text;strokeColor=none;fillColor=none;align=left;verticalAlign=top;spacingLeft=4;spacingRight=4;overflow=hidden;rotatable=0;points=[[0,0.5],[1,0.5]];portConstraint=eastwest;" parent="XqDq5O9ZwhlFk01etam3-42" vertex="1">
          <mxGeometry y="126" width="260" height="22" as="geometry" />
        </mxCell>
        <mxCell id="XqDq5O9ZwhlFk01etam3-51" value="+ findById(id: Long): Collaborator" style="text;strokeColor=none;fillColor=none;align=left;verticalAlign=top;spacingLeft=4;spacingRight=4;overflow=hidden;rotatable=0;points=[[0,0.5],[1,0.5]];portConstraint=eastwest;" parent="XqDq5O9ZwhlFk01etam3-42" vertex="1">
          <mxGeometry y="148" width="260" height="22" as="geometry" />
        </mxCell>
        <mxCell id="XqDq5O9ZwhlFk01etam3-52" value="+ findAll(): Collaborator" style="text;strokeColor=none;fillColor=none;align=left;verticalAlign=top;spacingLeft=4;spacingRight=4;overflow=hidden;rotatable=0;points=[[0,0.5],[1,0.5]];portConstraint=eastwest;" parent="XqDq5O9ZwhlFk01etam3-42" vertex="1">
          <mxGeometry y="170" width="260" height="22" as="geometry" />
        </mxCell>
        <mxCell id="XqDq5O9ZwhlFk01etam3-53" value="+ findByFilter(filter: Collaborator): List" style="text;strokeColor=none;fillColor=none;align=left;verticalAlign=top;spacingLeft=4;spacingRight=4;overflow=hidden;rotatable=0;points=[[0,0.5],[1,0.5]];portConstraint=eastwest;" parent="XqDq5O9ZwhlFk01etam3-42" vertex="1">
          <mxGeometry y="192" width="260" height="22" as="geometry" />
        </mxCell>
        <mxCell id="XqDq5O9ZwhlFk01etam3-55" value="&lt;p style=&quot;margin: 0px ; margin-top: 4px ; text-align: center&quot;&gt;&lt;i&gt;&amp;lt;&amp;lt;Enum&amp;gt;&amp;gt;&lt;/i&gt;&lt;br&gt;&lt;b&gt;PeriodDay&lt;/b&gt;&lt;/p&gt;&lt;hr size=&quot;1&quot;&gt;&lt;p style=&quot;margin: 0px ; margin-left: 4px&quot;&gt;&lt;font style=&quot;font-size: 12px&quot;&gt;- MORNING&lt;/font&gt;&lt;/p&gt;&lt;p style=&quot;margin: 0px ; margin-left: 4px&quot;&gt;&lt;font style=&quot;font-size: 12px&quot;&gt;- EVERNING&lt;/font&gt;&lt;/p&gt;&lt;p style=&quot;margin: 0px ; margin-left: 4px&quot;&gt;&lt;font style=&quot;font-size: 12px&quot;&gt;- NIGHT&lt;/font&gt;&lt;/p&gt;&lt;p style=&quot;margin: 0px ; margin-left: 4px&quot;&gt;&lt;br&gt;&lt;/p&gt;" style="verticalAlign=top;align=left;overflow=fill;fontSize=12;fontFamily=Helvetica;html=1;" parent="1" vertex="1">
          <mxGeometry x="-1060" y="418" width="120" height="120" as="geometry" />
        </mxCell>
        <mxCell id="XqDq5O9ZwhlFk01etam3-56" value="&lt;p style=&quot;margin: 0px ; margin-top: 4px ; text-align: center&quot;&gt;&lt;i&gt;&amp;lt;&amp;lt;Enum&amp;gt;&amp;gt;&lt;/i&gt;&lt;br&gt;&lt;b&gt;LevelPermission&lt;/b&gt;&lt;/p&gt;&lt;hr size=&quot;1&quot;&gt;&lt;p style=&quot;margin: 0px ; margin-left: 4px&quot;&gt;&lt;font style=&quot;font-size: 12px&quot;&gt;- ADMINISTRATOR&lt;/font&gt;&lt;/p&gt;&lt;p style=&quot;margin: 0px ; margin-left: 4px&quot;&gt;&lt;font style=&quot;font-size: 12px&quot;&gt;- DEFAULT&lt;/font&gt;&lt;/p&gt;&lt;p style=&quot;margin: 0px ; margin-left: 4px&quot;&gt;&lt;br&gt;&lt;/p&gt;" style="verticalAlign=top;align=left;overflow=fill;fontSize=12;fontFamily=Helvetica;html=1;" parent="1" vertex="1">
          <mxGeometry x="-1180" y="300" width="160" height="90" as="geometry" />
        </mxCell>
        <mxCell id="XqDq5O9ZwhlFk01etam3-67" style="edgeStyle=entityRelationEdgeStyle;rounded=0;orthogonalLoop=1;jettySize=auto;html=1;exitX=1;exitY=0.5;exitDx=0;exitDy=0;entryX=0;entryY=0.5;entryDx=0;entryDy=0;" parent="1" source="XqDq5O9ZwhlFk01etam3-24" target="XqDq5O9ZwhlFk01etam3-49" edge="1">
          <mxGeometry relative="1" as="geometry" />
        </mxCell>
        <mxCell id="XqDq5O9ZwhlFk01etam3-68" style="edgeStyle=entityRelationEdgeStyle;rounded=0;orthogonalLoop=1;jettySize=auto;html=1;exitX=0;exitY=0.5;exitDx=0;exitDy=0;entryX=1.005;entryY=-0.198;entryDx=0;entryDy=0;entryPerimeter=0;" parent="1" source="XqDq5O9ZwhlFk01etam3-11" target="XqDq5O9ZwhlFk01etam3-50" edge="1">
          <mxGeometry relative="1" as="geometry" />
        </mxCell>
        <mxCell id="XqDq5O9ZwhlFk01etam3-72" style="edgeStyle=orthogonalEdgeStyle;rounded=0;orthogonalLoop=1;jettySize=auto;html=1;exitX=1;exitY=0.5;exitDx=0;exitDy=0;entryX=0.575;entryY=0.973;entryDx=0;entryDy=0;entryPerimeter=0;" parent="1" source="XqDq5O9ZwhlFk01etam3-35" target="XqDq5O9ZwhlFk01etam3-53" edge="1">
          <mxGeometry relative="1" as="geometry" />
        </mxCell>
        <mxCell id="XqDq5O9ZwhlFk01etam3-77" value="1...*" style="text;html=1;resizable=0;autosize=1;align=center;verticalAlign=middle;points=[];fillColor=none;strokeColor=none;rounded=0;" parent="1" vertex="1">
          <mxGeometry x="-800" y="90" width="40" height="20" as="geometry" />
        </mxCell>
        <mxCell id="XqDq5O9ZwhlFk01etam3-78" value="1" style="text;html=1;resizable=0;autosize=1;align=center;verticalAlign=middle;points=[];fillColor=none;strokeColor=none;rounded=0;" parent="1" vertex="1">
          <mxGeometry x="-920" y="142" width="20" height="20" as="geometry" />
        </mxCell>
        <mxCell id="XqDq5O9ZwhlFk01etam3-79" value="1...*" style="text;html=1;resizable=0;autosize=1;align=center;verticalAlign=middle;points=[];fillColor=none;strokeColor=none;rounded=0;" parent="1" vertex="1">
          <mxGeometry x="-480" y="90" width="40" height="20" as="geometry" />
        </mxCell>
        <mxCell id="XqDq5O9ZwhlFk01etam3-80" value="1...*" style="text;html=1;resizable=0;autosize=1;align=center;verticalAlign=middle;points=[];fillColor=none;strokeColor=none;rounded=0;" parent="1" vertex="1">
          <mxGeometry x="-360" y="90" width="40" height="20" as="geometry" />
        </mxCell>
        <mxCell id="XqDq5O9ZwhlFk01etam3-81" value="1...*" style="text;html=1;resizable=0;autosize=1;align=center;verticalAlign=middle;points=[];fillColor=none;strokeColor=none;rounded=0;" parent="1" vertex="1">
          <mxGeometry x="-650" y="234" width="40" height="20" as="geometry" />
        </mxCell>
        <mxCell id="XqDq5O9ZwhlFk01etam3-82" value="1" style="text;html=1;resizable=0;autosize=1;align=center;verticalAlign=middle;points=[];fillColor=none;strokeColor=none;rounded=0;" parent="1" vertex="1">
          <mxGeometry x="-650" y="383" width="20" height="20" as="geometry" />
        </mxCell>
        <mxCell id="XqDq5O9ZwhlFk01etam3-83" value="collaborators" style="text;html=1;resizable=0;autosize=1;align=center;verticalAlign=middle;points=[];fillColor=none;strokeColor=none;rounded=0;" parent="1" vertex="1">
          <mxGeometry x="-830" y="80" width="80" height="20" as="geometry" />
        </mxCell>
        <mxCell id="XqDq5O9ZwhlFk01etam3-84" value="equipments" style="text;html=1;resizable=0;autosize=1;align=center;verticalAlign=middle;points=[];fillColor=none;strokeColor=none;rounded=0;" parent="1" vertex="1">
          <mxGeometry x="-490" y="122" width="80" height="20" as="geometry" />
        </mxCell>
        <mxCell id="XqDq5O9ZwhlFk01etam3-85" value="reservations" style="text;html=1;resizable=0;autosize=1;align=center;verticalAlign=middle;points=[];fillColor=none;strokeColor=none;rounded=0;" parent="1" vertex="1">
          <mxGeometry x="-400" y="70" width="80" height="20" as="geometry" />
        </mxCell>
        <mxCell id="XqDq5O9ZwhlFk01etam3-86" value="reserve" style="text;html=1;resizable=0;autosize=1;align=center;verticalAlign=middle;points=[];fillColor=none;strokeColor=none;rounded=0;" parent="1" vertex="1">
          <mxGeometry x="-920" y="122" width="60" height="20" as="geometry" />
        </mxCell>
        <mxCell id="XqDq5O9ZwhlFk01etam3-88" value="schedules" style="text;html=1;resizable=0;autosize=1;align=center;verticalAlign=middle;points=[];fillColor=none;strokeColor=none;rounded=0;" parent="1" vertex="1">
          <mxGeometry x="-595" y="234" width="70" height="20" as="geometry" />
        </mxCell>
        <mxCell id="XqDq5O9ZwhlFk01etam3-89" value="schedules" style="text;html=1;resizable=0;autosize=1;align=center;verticalAlign=middle;points=[];fillColor=none;strokeColor=none;rounded=0;" parent="1" vertex="1">
          <mxGeometry x="-655" y="403" width="70" height="20" as="geometry" />
        </mxCell>
        <mxCell id="jrowfTUUS5YQGsjVpTJD-2" value="&lt;p style=&quot;margin: 0px ; margin-top: 4px ; text-align: center&quot;&gt;&lt;i&gt;&amp;lt;&amp;lt;Enum&amp;gt;&amp;gt;&lt;/i&gt;&lt;br&gt;&lt;b&gt;ReserveStatus&lt;/b&gt;&lt;/p&gt;&lt;hr size=&quot;1&quot;&gt;&lt;p style=&quot;margin: 0px ; margin-left: 4px&quot;&gt;&lt;font style=&quot;font-size: 12px&quot;&gt;- RESERVED&lt;/font&gt;&lt;/p&gt;&lt;p style=&quot;margin: 0px ; margin-left: 4px&quot;&gt;&lt;font style=&quot;font-size: 12px&quot;&gt;- IN USE&lt;/font&gt;&lt;/p&gt;&lt;p style=&quot;margin: 0px ; margin-left: 4px&quot;&gt;&lt;font style=&quot;font-size: 12px&quot;&gt;- FINISHED&lt;/font&gt;&lt;/p&gt;&lt;p style=&quot;margin: 0px ; margin-left: 4px&quot;&gt;&lt;br&gt;&lt;/p&gt;" style="verticalAlign=top;align=left;overflow=fill;fontSize=12;fontFamily=Helvetica;html=1;" vertex="1" parent="1">
          <mxGeometry x="-715" y="-110" width="120" height="120" as="geometry" />
        </mxCell>
      </root>
    </mxGraphModel>
  </diagram>
</mxfile>
